<svg height="265" width="356" xmlns="http://www.w3.org/2000/svg"><linearGradient id="a" x1="135.874%" x2="21.507%" y1="-23.479%" y2="82.493%"><stop offset="0" stop-color="#ddd"/><stop offset="1" stop-color="#666"/></linearGradient><linearGradient id="b" x1="136.789%" x2="12.7%" y1="-22.303%" y2="93.592%"><stop offset=".013" stop-color="#909090"/><stop offset="1" stop-color="#3b3a3a"/></linearGradient><linearGradient id="c" x1="-46.725%" x2="71.334%" y1="-27.456%" y2="88.755%"><stop offset="0" stop-color="#dedede"/><stop offset="1" stop-color="#6a6a6a"/></linearGradient><linearGradient id="d" x1="0%" x2="78.86%" y1="20.489%" y2="100%"><stop offset="0" stop-color="#757575"/><stop offset="1" stop-color="#414141"/></linearGradient><linearGradient id="e" x1="50%" x2="36.236%" y1="-4.481%" y2="63.195%"><stop offset="0" stop-color="#f58d00"/><stop offset="1" stop-color="#803d00"/></linearGradient><linearGradient id="f" x1="50%" x2="63.662%" y1="2.918%" y2="60.29%"><stop offset="0" stop-color="#ff9300"/><stop offset="1" stop-color="#803d00"/></linearGradient><linearGradient id="g" x1="4.55%" x2="134.305%" y1="21.125%" y2="99.905%"><stop offset="0" stop-color="#744300"/><stop offset="1" stop-color="#ffb551"/></linearGradient><linearGradient id="h" x1="-36.785%" x2="90.593%" y1="96.625%" y2="23.83%"><stop offset="0" stop-color="#ffb551"/><stop offset="1" stop-color="#875121"/></linearGradient><linearGradient id="i" x1="50%" x2="50%" y1="100%" y2="0%"><stop offset="0" stop-color="#ffcb00"/><stop offset="1" stop-color="#ff9b00"/></linearGradient><linearGradient id="j" x1="50%" x2="50%" y1="-54.327%" y2="100%"><stop offset="0" stop-color="#ffb551"/><stop offset="1" stop-color="#7b4a1d"/></linearGradient><radialGradient id="l" cx="50%" cy="50.333%" r="56.842%"><stop offset="0" stop-color="#b74f00"/><stop offset="1" stop-color="#493400"/></radialGradient><radialGradient id="m" cx="50%" cy="50%" r="149.398%"><stop offset="0" stop-color="#ffb700"/><stop offset="1" stop-color="#a36200"/></radialGradient><mask id="k" fill="#fff"><path d="M0 265h356V0H0z" fill-rule="evenodd"/></mask><mask id="n" fill="#fff"><path d="M0 0h17v17H0z" fill-rule="evenodd"/></mask><g fill="none" fill-rule="evenodd"><path d="M139.098 183.097c-5.464 5.468-5.464 14.334 0 19.802s14.332 5.468 19.801 0c5.468-5.468 5.468-14.334 0-19.802-5.469-5.463-14.337-5.463-19.801 0" fill="#fff"/><path d="M127.977 204.982c-5.509 5.512-6.617 13.352-2.458 17.503 4.154 4.15 11.992 3.05 17.505-2.461 5.516-5.517 6.61-13.35 2.459-17.509-4.151-4.15-11.992-3.052-17.506 2.467" fill="#fff"/><path d="M236 211.955 219.968 228 210 218.034 226.037 202z" fill="url(#a)" transform="matrix(-1 0 0 1 356 0)"/><path d="M234 209.896 217.892 226 213 221.104 229.109 205z" fill="url(#b)" transform="matrix(-1 0 0 1 356 0)"/><path d="M108.972 223.254c-2.63 2.62-2.626 6.873-.006 9.498l6.282 6.284a6.724 6.724 0 0 0 9.505-.006l6.276-6.278c2.632-2.625 2.62-6.878.012-9.498l-6.299-6.287c-2.611-2.625-6.867-2.62-9.494 0z" fill="#e5e3e3"/><path d="M234.9 183.097c5.467 5.468 5.467 14.334 0 19.802-5.464 5.468-14.332 5.468-19.795 0-5.473-5.468-5.473-14.334 0-19.802 5.463-5.463 14.33-5.463 19.795 0" fill="#fff"/><path d="M246.022 204.982c5.511 5.512 6.618 13.352 2.457 17.503-4.151 4.15-11.99 3.05-17.507-2.461-5.509-5.517-6.607-13.35-2.455-17.509 4.15-4.15 11.99-3.052 17.505 2.467" fill="#fff"/><path d="M102 211.955 118.032 228l9.968-9.966L111.962 202z" fill="url(#c)" transform="matrix(-1 0 0 1 356 0)"/><path d="M104 209.896 120.103 226l4.897-4.896L108.893 205z" fill="url(#d)" transform="matrix(-1 0 0 1 356 0)"/><path d="M265.037 223.247c2.62 2.62 2.615 6.878 0 9.503l-6.287 6.284c-2.623 2.622-6.879 2.622-9.494-.006l-6.28-6.278c-2.633-2.625-2.633-6.882-.011-9.497l6.286-6.287c2.62-2.625 6.876-2.62 9.505.006z" fill="#e5e3e3"/><path d="M212.002 261H222v-27h-20z" fill="#fff"/><path d="M132 249v13h14.325L151 249z" fill="url(#e)" transform="matrix(-1 0 0 1 356 0)"/><path d="M160.004 261H150v-27h20z" fill="#fff"/><path d="M208 249v13h-14.325L189 249z" fill="url(#f)" transform="matrix(-1 0 0 1 356 0)"/><path d="M220.267 176.82C225.122 185.343 228 195.745 228 207c0 11.248-2.878 21.653-7.733 30.186-9.685 4.275-21.484 6.814-34.264 6.814-12.78 0-24.584-2.54-34.27-6.814C146.879 228.653 144 218.254 144 207s2.885-21.656 7.743-30.186c9.686-4.279 21.483-6.814 34.26-6.814 12.77 0 24.579 2.535 34.264 6.82" fill="#fff"/><path d="M184.251 189.28c13.825 1.25 24.677 13.04 24.748 26.969l.001.251v.25c-.072 13.93-10.924 25.72-24.748 26.97-2.04.184-4.127.28-6.25.28-2.125 0-4.213-.096-6.254-.281-13.824-1.25-24.676-13.04-24.748-26.968v-.504c.072-13.928 10.926-25.717 24.749-26.967a69.47 69.47 0 0 1 6.253-.28c2.123 0 4.209.096 6.25.28" fill="#fec885"/><path d="m210 238-78-59.277 5.803-2.723L210 231.693z" fill="url(#g)" transform="matrix(-1 0 0 1 356 0)"/><path d="m132 235 77-56.288-5.847-2.712L132 228.719z" fill="url(#h)" transform="matrix(-1 0 0 1 356 0)"/><path d="M125 132.498c0 26.23 21.264 47.502 47.487 47.502h26.028C224.738 180 246 158.728 246 132.498 246 106.27 224.738 85 198.515 85h-26.028C146.264 85 125 106.27 125 132.498" fill="#fff"/><g fill="#fec885"><path d="M202.63 101.638c-1.593-4.296-4.913-4.578-8.844-2.211l-7.631 4.591-1.067-2.112c-1.917-3.797-3.937-5.164-7.586-2.968l-8.441 5.08-1.065-2.11c-1.916-3.798-3.936-5.166-7.586-2.97l-8.443 5.08-1.056-2.088c-1.922-3.805-3.96-5.166-7.608-2.952l-8.303 5.04C144.056 91.312 149.088 83 165.91 83h36.13c27.592 0 49.96 22.317 49.96 49.846V194l-25.878-17.473v-40.832c0-12.637-9.23-25.017-19.956-30.098-1.657-.786-2.899-2.242-3.536-3.96"/><path d="M168.963 85.208c-1.163 0-2.141.31-2.963.792 2.013-5.08 5.023-9.85 9.128-13.957C182.604 64.56 192.213 60.574 202 60a152.219 152.219 0 0 0-21.212 17.701c-2.458 2.458-4.749 4.971-6.962 7.507zM225 151c9.558.56 18.945 4.45 26.243 11.751 7.309 7.301 11.2 16.694 11.757 26.249a148.433 148.433 0 0 0-17.276-20.72c-6.673-6.665-13.662-12.417-20.724-17.28zM224.003 90.624C214.521 90.632 197 83 197 83h26.992c10.38 0 19.816 3.79 27.008 10a154.298 154.298 0 0 0-26.997-2.376"/></g><path d="M194 135a7 7 0 1 0 14 0 7 7 0 0 0-14 0" fill="#000"/><path d="m188.815 124.912 21.146 3.043c2.662.384 5.039-1.751 5.039-4.528 0-1.997-1.257-3.764-3.102-4.361l-21.145-6.853c-2.853-.923-5.753 1.275-5.753 4.362v3.809c0 2.281 1.629 4.213 3.815 4.528M144.205 125.264l-15.857 2.67c-2.794.47-5.348-1.63-5.348-4.397v-.074c0-1.842 1.159-3.495 2.92-4.16l15.857-5.998c2.996-1.132 6.223 1.025 6.223 4.161v3.4c0 2.172-1.601 4.028-3.795 4.398" fill="#fec885"/><path d="M131 237v9l9.88-2.155 9.874 2.155 9.875-2.155 9.869 2.155 9.874-2.155 9.88 2.155 9.869-2.155L210 246v-9z" fill="url(#i)" transform="matrix(-1 0 0 1 356 0)"/><path d="M131 238h79v-13h-79z" fill="url(#j)" mask="url(#k)" transform="matrix(-1 0 0 1 356 0)"/><path d="M172.002 250c-9.94 0-18.002-8.056-18.002-18.001 0-9.94 8.062-17.999 18.002-17.999 9.941 0 17.998 8.059 17.998 17.999 0 9.945-8.057 18.001-17.998 18.001z" fill="url(#l)" mask="url(#k)" transform="matrix(-1 0 0 1 356 0)"/><path d="M172.001 245c-7.173 0-13.001-5.825-13.001-13.006S164.828 219 172.001 219c7.17 0 12.999 5.813 12.999 12.994S179.17 245 172.001 245z" fill="url(#m)" mask="url(#k)" transform="matrix(-1 0 0 1 356 0)"/><path d="M53 191.155 63.157 181 121 238.841 110.838 249z" fill="#ffb721" mask="url(#k)" transform="matrix(-1 0 0 1 356 0)"/><path d="M99.343 215.344a4.579 4.579 0 0 0 0 6.48l2.83 2.836a4.583 4.583 0 0 0 6.477 0 4.582 4.582 0 0 0 .005-6.49l-2.82-2.829a4.595 4.595 0 0 0-6.492.003" fill="#fff" mask="url(#k)" transform="matrix(-1 0 0 1 356 0)"/><path d="M116.496 232c6.357.005 11.495 5.15 11.504 11.499 0 6.358-5.137 11.492-11.504 11.501-6.364-.009-11.506-5.154-11.496-11.488 0-6.363 5.155-11.493 11.496-11.512" fill="#bcc4cd" mask="url(#k)" transform="matrix(-1 0 0 1 356 0)"/><path d="M116.001 237c3.325.005 6.01 2.696 5.999 6.002.01 3.313-2.67 5.987-5.999 5.998-3.315 0-6.001-2.685-6.001-5.985a6.003 6.003 0 0 1 6.001-6.015M13 191.032 34.95 213 86 161.963 64.035 140z" fill="#8192a4" mask="url(#k)" transform="matrix(-1 0 0 1 356 0)"/><path d="M49 168c4.419 0 8.005 3.574 8 8.001A7.984 7.984 0 0 1 49.005 184 8 8 0 0 1 41 175.993 7.999 7.999 0 0 1 49 168" fill="#bcc4cd" mask="url(#k)" transform="matrix(-1 0 0 1 356 0)"/><path d="M53 151.048 74.932 173 86 161.942 64.067 140zM13 191.069 34.929 213 46 201.919 24.072 180z" fill="#425059" mask="url(#k)" transform="matrix(-1 0 0 1 356 0)"/><path d="M83.935 175 51 142.066 63.067 130 96 162.933zM35.937 223 3 190.064 15.064 178 48 210.933zM217.826 253.691 210 255l1.327-7.818 4.168-4.182 6.505 6.517z" fill="#bcc4cd" mask="url(#k)" transform="matrix(-1 0 0 1 356 0)"/><path d="m224.95 248-7.95-7.94L298.052 159l7.948 7.943z" fill="#ffb721" mask="url(#k)" transform="matrix(-1 0 0 1 356 0)"/><path d="M331.428 231.134c-9.994 10.009-22.723 15.634-35.797 16.866 5.847-20.768 3.283-43.414-7.696-62.532l-8.016-8.346L298.052 159l8.332 8.136L351 211.543" fill="#8192a4" mask="url(#k)" transform="matrix(-1 0 0 1 356 0)"/><path d="m283.611 181.109 18.348-18.35 4.065 4.066-18.348 18.35a2234.54 2234.54 0 0 0-4.065-4.066zM351 211.542c-15.085 17.686-30.396 35.202-55.369 36.458 1.293-4.447 2.123-8.977 2.605-13.542 25.08-6.549 36.35-25.2 43.506-32.218" fill="#bcc4cd" mask="url(#k)" transform="matrix(-1 0 0 1 356 0)"/><path d="M223.304 255 210 241.695l4.69-4.695L228 250.3z" fill="#8192a4" mask="url(#k)" transform="matrix(-1 0 0 1 356 0)"/><path d="m260.05 213-8.05-8.043 7.952-7.957 8.048 8.056zM229.053 244 221 236.052l8.053-8.052 7.947 8.052z" fill="red" mask="url(#k)" transform="matrix(-1 0 0 1 356 0)"/><path d="M249 224v-15.902L260 197v15.902z" fill="#fff6eb" mask="url(#k)" transform="matrix(-1 0 0 1 356 0)"/><path d="M248 225v-15.9l11-11.1-.01 15.895z" fill="#fff6eb" mask="url(#k)" transform="matrix(-1 0 0 1 356 0)"/><path d="M247.888 225 232 224.992l11.095-10.987L259 214z" fill="red" mask="url(#k)" transform="matrix(-1 0 0 1 356 0)"/><path d="M236.906 236H221l11.102-11H248z" fill="#fff6eb" mask="url(#k)" transform="matrix(-1 0 0 1 356 0)"/><path d="M239.66 215.344a4.584 4.584 0 0 1 0 6.478l-2.83 2.836a4.587 4.587 0 0 1-6.485-6.489l2.82-2.828a4.6 4.6 0 0 1 6.495.003M187.847 88.348h6.207c7.455 0 13.655 1.674 19.04 4.652 1.384-14.892 1.296-32.035-1.056-46.73-5.39-34.499-17.793-41.141-29.637-40.184-12.332.94-19.028 8.849-10.721 42.57 3.255 12.42 16.167 39.692 16.167 39.692M144 89.71c-3.965-16.224-11.51-36.154-20.802-51.5-17.83-29.7-31.786-31.131-42.395-25.783-11.067 5.517-14.324 15.316 5.92 43.201C97.686 70.266 110.88 88.021 122.055 101c6.151-5.465 13.644-9.424 21.945-11.29" fill="#fff" mask="url(#k)" transform="matrix(-1 0 0 1 356 0)"/><path d="M194.13 88.536c4.183 0 7.975.51 11.455 1.464.837-12.808.53-27.992-2.066-43.154-4.838-27.393-13.094-32.003-15.94-32.64-.911-.2-2.006-.253-3.329-.165-3.127.23-4.934.962-6.164 4.223-1.498 3.827-1.954 12.143 2.012 29.942 3.222 14.14 6.921 28.227 10.473 40.33zM115.36 41.317C100.5 17.794 91.118 16.602 88.244 17.07c-.92.153-1.95.512-3.141 1.085-2.805 1.374-4.199 2.723-4.098 6.195.064 4.094 2.795 11.95 13.21 26.928C106.05 68.124 118.744 84.534 128.514 96A50.303 50.303 0 0 1 137 91.675c-3.73-14.202-10.824-33.043-21.64-50.358z" fill="#fec885" mask="url(#k)" transform="matrix(-1 0 0 1 356 0)"/><path d="M200 153.803c-1.37-2.847-4.21-4.803-7.5-4.803-3.288 0-6.134 1.956-7.5 4.803 3.356.076 6.236 2.186 7.5 5.197 1.262-3.011 4.135-5.12 7.5-5.197z" fill="#ef9595" mask="url(#k)" transform="matrix(-1 0 0 1 356 0)"/><path d="M176.277 166.273c-.414-.301-.36-.974.132-1.507.481-.529 1.219-.72 1.63-.417.038.031 3.77 2.655 7.683.746 2.779-1.358 5.139-4.717 7.03-9.992.217-.602.886-1.103 1.488-1.103.601 0 .907.501.69 1.103-2.194 6.122-5.156 10.13-8.803 11.905a9.52 9.52 0 0 1-4.215.992c-3.206 0-5.502-1.628-5.635-1.727z" fill="#ef9595" mask="url(#k)" transform="matrix(-1 0 0 1 356 0)"/><path d="M192.83 167.008c-2.347-1.775-2.436-5.777-.27-11.905.213-.602.872-1.103 1.466-1.103.592 0 .893.501.68 1.103-1.863 5.275-1.908 8.634-.128 9.992 2.5 1.909 8.033-.715 8.094-.746.62-.298 1.205-.112 1.312.417.105.533-.31 1.206-.93 1.507-.209.1-3.613 1.727-6.776 1.727-1.262 0-2.493-.26-3.448-.992z" fill="#ef9595" mask="url(#k)" transform="matrix(-1 0 0 1 356 0)"/><path d="M205.515 259.614c-.69-.953-1.753-1.614-3.014-1.614-1.263 0-2.327.661-3.016 1.614-.473-.366-1.04-.622-1.683-.622A2.81 2.81 0 0 0 195 261.81c0 .486 1.255.88 2.802.88.644 0 1.21-.079 1.683-.194.69.299 1.753.505 3.016.505 1.26 0 2.325-.206 3.014-.505.473.115 1.04.195 1.683.195 1.548 0 2.802-.395 2.802-.881a2.81 2.81 0 0 0-2.802-2.817c-.644 0-1.21.256-1.683.622zM143.514 259.614c-.689-.953-1.753-1.614-3.014-1.614s-2.326.661-3.015 1.614c-.473-.366-1.039-.622-1.683-.622A2.81 2.81 0 0 0 133 261.81c0 .486 1.254.88 2.802.88.644 0 1.21-.079 1.683-.194.689.299 1.753.505 3.015.505s2.325-.206 3.014-.505c.473.115 1.04.195 1.684.195 1.547 0 2.802-.395 2.802-.881a2.81 2.81 0 0 0-2.802-2.817c-.644 0-1.21.256-1.684.622z" fill="#ffbdbd" mask="url(#k)" transform="matrix(-1 0 0 1 356 0)"/><path d="M161 134.5a2.5 2.5 0 1 1-5 0 2.5 2.5 0 0 1 5 0" fill="#f2f1e7" mask="url(#k)" transform="matrix(-1 0 0 1 356 0)"/><path d="M228 135a7 7 0 1 1-14 0 7 7 0 0 1 14 0" fill="#000" mask="url(#k)" transform="matrix(-1 0 0 1 356 0)"/><path d="M227 134.5a2.5 2.5 0 1 1-5 0 2.5 2.5 0 0 1 5 0" fill="#f2f1e7" mask="url(#k)" transform="matrix(-1 0 0 1 356 0)"/><g mask="url(#k)" transform="matrix(-1 0 0 1 356 0)"><path d="M6.079 10.12c-.275-.562-.752-1.002-1.284-1.397-.55-.409-.58-.436-.202-1a68.82 68.82 0 0 1 1.983-2.789c.395-.53.968-.358 1.48-.245.807.178 1.501.602 2.154 1.097l.315.235c.425-.786.65-1.545.023-2.352-.479-.087-.534-.148-.42-.568-.308-.095-.812-.009-.643-.597-.156-.074-.312-.132-.45-.217-.332-.203-.325-.425.018-.622.108-.062.233-.102.355-.133.105-.027.217-.029.38-.048C9.49 1.152 8.892.95 9.312.417c.13-.166.499-.128.667-.282.292-.267.442.002.666.1L10.804 0c.045.01.096.007.116.03.487.574 1.266.942 1.307 1.832.321.217.327.535.277.869-.089.586-.181 1.172-.289 1.865.325-.711.622-1.345.905-1.985.13-.294.267-.557.65-.484.175-.903.215-.95.773-.928.201-.799.427-.934.9-.524.104-.06.211-.171.322-.175.198-.006.488-.016.577.1.142.185.162.47.209.717.016.084-.087.194-.064.272.146.51.088.648-.396.83-.07.026-.144.045-.22.068.221.343.19.579-.141.72-.276.119-.582.163-.889.244.123.3-.128.349-.331.434-.524.221-1.049.44-1.569.669-.1.043-.181.127-.355.253.169-.028.245-.021.3-.053.543-.318 1.156-.168 1.734-.245.122-.016.266.143.403.215.06.032.13.046.194.07.26.096.562.139.772.301.356.276.663.618.966.955.044.048-.049.219-.1.415.022.045.167.206.142.335a2.89 2.89 0 0 1-.313.864c-.135.24-.472.244-.701.04-.147-.13-.265-.293-.409-.454-.063.236-.09.467-.19.663-.065.129-.222.268-.356.287-.091.014-.23-.157-.314-.27-.081-.11-.118-.25-.175-.378-.436.044-.531-.055-.603-.653-.364.145-.426-.087-.597-.354-.158-.245-.583-.438-.892-.44-.475-.004-.951.175-1.512.295.152.207.227.315.307.419.57.743 1.013 1.545 1.165 2.485.09.547-.014 1.002-.548 1.291-.289.157-.568.498-.835.481-.252-.016-.47-.405-.724-.604-.222-.173-.471-.31-.709-.464l-.061.074c.141.287.304.565.42.86.251.638.227.851-.308 1.247-.599.443-1.237.84-1.887 1.204-.466.26-.592.183-.94-.218-.247-.285-.532-.538-.8-.804l-.097.082c.168.39.333.78.505 1.169.104.236.058.41-.18.534-1.661.87-3.318 1.75-4.984 2.61-.231.12-.504.179-.765.217-.46.067-.57-.057-.447-.499.106-.377.207-.765.386-1.11.957-1.842 1.944-3.669 2.907-5.508.215-.41.533-.53.938-.398.61.198 1.206.434 1.8.651" fill="#662d00" mask="url(#n)" transform="translate(164 223)"/></g></g></svg>