<svg height="269" width="312" xmlns="http://www.w3.org/2000/svg"><mask id="a" fill="#fff"><path d="M0 0h88v99H0z" fill-rule="evenodd"/></mask><mask id="b" fill="#fff"><path d="M0 0h13v4H0z" fill-rule="evenodd"/></mask><g fill="none" fill-rule="evenodd"><path d="M27.433 63.715c4.99 43.169 48.04 39.128 59.702 27.455 6.16-6.164-22.44-16.584-27.432-59.752C54.713-11.752 2.753 1.208 0 3.963c2.752-2.754 22.444 16.583 27.433 59.752" fill="#ff8f33" mask="url(#a)" transform="translate(.406 136)"/><path d="M24.969 183C14.315 144.107 1.122 139.192.406 139.91c1.686-1.977 39.038-15.167 55 12.18-1.87.03-12.515-2.933-24.401-9.916 8.572 11.854 7.75 26.18 8.137 25.791-.388.389-5.235-8.243-18.008-15.879 8.003 10.886 4.115 28.788 3.835 30.914" fill="#c44e12"/><path d="M79.902 268H68.406v-32h23zM138.903 268h11.503v-32h-23z" fill="#62717f"/><path d="M149.406 252.503c0 3.589-2.915 6.497-6.509 6.497a6.497 6.497 0 0 1-6.49-6.497c0-3.594 2.91-6.503 6.49-6.503a6.505 6.505 0 0 1 6.51 6.503M82.406 252.503A6.5 6.5 0 0 1 75.907 259a6.501 6.501 0 1 1 6.5-6.497M70.43 161.032c-5.664 11.294-9.024 25.065-9.024 39.97 0 14.9 3.36 28.675 9.024 39.974C81.732 246.64 95.5 250 110.407 250c14.91 0 28.676-3.36 39.975-9.024 5.664-11.299 9.024-25.068 9.024-39.975 0-14.904-3.368-28.675-9.032-39.978-11.297-5.66-25.066-9.023-39.967-9.023-14.902 0-28.675 3.363-39.977 9.032" fill="#425059"/><path d="M151.166 223.697c-6.836-4.93-74.683-4.93-81.52 0-6.332 4.575-7.24 28.62-7.24 28.62s27.268 3.787 34.941 0c4.05-1.99 9.022-8.881 13.064-15.409 4.033 6.528 9.005 13.42 13.053 15.408 7.678 3.788 34.942 0 34.942 0s-.904-24.044-7.24-28.619" fill="#8192a4"/><path d="M61.406 212.965a89.916 89.916 0 0 0 3.753 16.466C78.543 232.96 93.692 235 109.843 235c16.178 0 31.342-2.048 44.749-5.587a89.757 89.757 0 0 0 3.814-16.865C143.98 209.036 127.911 207 110.818 207c-17.799 0-34.515 2.198-49.412 5.965" fill="#62717f"/><path d="M190.406 187.459 179.885 166l-25.479 11.9 3.454 26.1z" fill="#425059"/><path d="M206.918 151.769a7.708 7.708 0 0 1 10.288 3.578l4.434 9.172a7.698 7.698 0 0 1-3.592 10.279l-9.153 4.432c-3.84 1.852-8.444.247-10.291-3.58l-4.433-9.174c-1.844-3.825-.24-8.432 3.593-10.285z" fill="#ea7e2d"/><path d="M133.406 148.962c22.3-12.575 50.494-4.606 63 17.768L151.596 192z" fill="#8192a4"/><path d="M165.419 177.912c4.193 7.471 1.533 16.905-5.93 21.096-7.46 4.19-16.912 1.559-21.1-5.915-4.187-7.46-1.525-16.916 5.935-21.106 7.462-4.191 16.907-1.535 21.095 5.925" fill="#bcc4cd"/><path d="M161.064 180.355a10.502 10.502 0 0 1-4.023 14.295 10.48 10.48 0 0 1-14.288-4.012 10.492 10.492 0 0 1 4.016-14.293c5.05-2.836 11.45-1.04 14.295 4.01M203.406 185.377 189.16 156l-13.753 6.627L189.648 192z" fill="#8192a4"/><path d="M168.406 116.503c0 30.648-24.863 55.497-55.537 55.497h-4.915c-30.677 0-55.548-24.85-55.548-55.497S77.276 61 107.954 61h4.915c30.674 0 55.537 24.856 55.537 55.503" fill="#ff8f33"/><path d="M136.406 141h26.324c3.6-7.336 5.676-15.55 5.676-24.266 0-19-9.608-35.759-24.237-45.734h-7.763z" fill="#ed751b"/><path d="M89.406 153.967c0 9.918 8.064 18.033 17.919 18.033h28.163c9.856 0 17.918-8.115 17.918-18.033l-64-18.967z" fill="#ff8f33"/><path d="M156.189 139c.113 0 .229-.024.337-.076 6.756-3.175 14.388-4.664 22.062-4.343.486-.019.797-.312.817-.735a.774.774 0 0 0-.746-.802c-7.942-.33-15.823 1.21-22.808 4.493a.763.763 0 0 0-.368 1.025.784.784 0 0 0 .706.438M180.623 160a.786.786 0 0 0 .707-.435.764.764 0 0 0-.369-1.027c-6.985-3.284-14.857-4.824-22.806-4.494a.776.776 0 0 0-.748.802c.02.423.32.722.817.735 7.678-.336 15.308 1.17 22.062 4.343a.786.786 0 0 0 .337.076M165.192 146.999c.06 0 .122-.007.185-.023a42.807 42.807 0 0 1 21.06 0c.44.11.846-.172.947-.614.102-.448-.16-.896-.579-1.003a44.384 44.384 0 0 0-21.796 0c-.422.107-.682.555-.58 1.003.086.38.407.637.763.637" fill="#425059"/><path d="M128.29 114c-12.035 0-21.884 9.9-21.884 22s9.85 22 21.885 22h23.23c12.037 0 21.885-9.9 21.885-22z" fill="#ff8f33"/><path d="m172.406 136.569-11.583-5.561c-.047-.001-.093-.008-.14-.008-15.064 0-27.277 12.089-27.277 27h17.349c11.908 0 21.651-9.644 21.651-21.431" fill="#f2f1e7"/><g fill="#425059"><path d="M173.406 136.616 161.861 131c-.605 1.495-1.455 3.9-1.455 5.616 0 5.842 3.857 10.726 9.138 12.384a21.784 21.784 0 0 0 3.862-12.384M150.623 139a.789.789 0 0 1-.337-.076c-6.756-3.175-14.387-4.664-22.061-4.343-.487-.019-.798-.312-.818-.735a.775.775 0 0 1 .747-.802c7.941-.33 15.822 1.21 22.807 4.493.39.184.555.643.369 1.025a.786.786 0 0 1-.707.438M127.189 160a.786.786 0 0 1-.706-.435.764.764 0 0 1 .368-1.027c6.985-3.284 14.858-4.824 22.807-4.494.43.018.765.378.748.802-.02.423-.321.722-.818.735-7.677-.336-15.307 1.17-22.062 4.343a.783.783 0 0 1-.337.076M142.62 146.999a.748.748 0 0 1-.185-.023 42.804 42.804 0 0 0-21.059 0c-.44.11-.847-.172-.948-.614-.1-.448.16-.896.58-1.003a44.381 44.381 0 0 1 21.796 0c.422.107.681.555.58 1.003a.799.799 0 0 1-.764.637"/></g><path d="M161.406 109.481c.135 0 .264.036.398.038.202-.006.399-.038.602-.038z" fill="#e2c0a8"/><path d="m106.827 107.522-25.372 3.428c-3.196.432-6.049-1.971-6.049-5.095 0-2.248 1.508-4.235 3.723-4.908l25.372-7.707c3.424-1.04 6.905 1.435 6.905 4.908v4.28c0 2.565-1.954 4.74-4.579 5.094M146.808 108.715l18.393 3.206c3.242.565 6.205-1.955 6.205-5.278v-.087a5.353 5.353 0 0 0-3.387-4.994l-18.392-7.195c-3.476-1.36-7.22 1.23-7.22 4.993v4.078c0 2.606 1.857 4.833 4.4 5.277" fill="#c44e12"/><path d="M148.406 120.171s1.913-6.79 8.764-6.125c6.852.665 8.236 7.954 8.236 7.954s-5.826-2.976-8.836-3.026-8.164 1.197-8.164 1.197M86.406 121s.554-7.165 7.392-7.94c6.837-.775 9.608 6.197 9.608 6.197s-6.283-1.743-9.24-1.162c-2.956.581-7.76 2.905-7.76 2.905" fill="#000"/><path d="M41.406 195.537 53.93 175l18.476 11.27L63.457 211z" fill="#425059"/><path d="M31.771 160.153c-3.707-2.262-8.545-1.094-10.805 2.612l-5.413 8.877c-2.257 3.702-1.08 8.538 2.627 10.799l8.864 5.407c3.707 2.261 8.543 1.092 10.8-2.61l5.412-8.876a7.86 7.86 0 0 0-2.621-10.802z" fill="#ea7e2d"/><path d="M42.861 167.745c-2.494-1.465-5.749-.703-7.27 1.698l-2.41 3.807c-1.52 2.401-.734 5.536 1.76 7.001 2.501 1.469 5.76.71 7.281-1.691l2.411-3.806c1.521-2.402.73-5.54-1.772-7.009" fill="#ff8f33"/><path d="M28.406 193.024 45.402 165l13.004 7.976L41.411 201z" fill="#8192a4"/><path d="M137.65 7c31.495 6.176 41.756 43.578 41.756 43.578L139.362 76c-12.316-36.315-1.712-69-1.712-69" fill="#ff8f33"/><path d="M115.553 16h-9.294c-40.232 0-72.853 32.524-72.853 72.638V169h36.347V93.737h118.653v-5.099c0-40.114-32.623-72.638-72.853-72.638" fill="#425059"/><path d="M37.65 7c31.495 6.214 41.756 53.421 41.756 53.421L39.362 86C27.046 49.46 37.651 7 37.651 7" fill="#ff8f33"/><path d="M40.023 9C65.61 22.082 73.406 55.72 73.406 55.72l-9.45 14.06L41.821 84c-9.726-30.434-3.777-67.513-1.798-75" fill="#ffb985"/><path d="M45.971 78c-7.638-20.478-.627-49-.627-49 14.433 5.32 22.062 22.253 22.062 22.253l-5.889 16.585z" fill="#c44e12"/><path d="M58.454 67.025c-1.218 1.434-2.474 2.178-3.586 1.927-1.768-.402-2.736-3.178-2.756-7.034-6.527-2.172-10.706-7.48-10.706-7.48s2.607-1.25 6.307-1.888C45.823 46.545 46.565 41 46.565 41s5.425 1.802 10.117 6.108c2.22-2.954 4.52-4.682 4.52-4.682s3.036 6.001 2.15 12.672c.128.062.25.125.373.187-.729 4.178-1.58 6.593-1.58 6.593l3.261 3.394c-.051 1.057-.304 1.911-.77 2.505l-2.718.852c-1.026-.188-2.204-.734-3.464-1.604" fill="#ff8f33"/><path d="M96.406 38c-32.032 0-58 25.967-58 58h116c0-32.033-25.968-58-58-58" fill="#425059"/><path d="M216.406 101h-160L168.99 0s45.409 22.221 47.416 101" fill="#8192a4"/><path d="M187.259 93h.188a7.13 7.13 0 0 0 6.957-7.293c-1.144-44.942-27.58-58.416-28.704-58.97-3.528-1.747-7.811-.28-9.556 3.252-1.737 3.511-.3 7.744 3.195 9.501.962.507 19.879 10.893 20.787 46.585.098 3.864 3.28 6.925 7.133 6.925M153.348 93h.184c3.897-.105 6.966-3.324 6.872-7.214-.78-30.362-19.051-39.68-19.827-40.05-3.502-1.737-7.724-.291-9.449 3.2a7.035 7.035 0 0 0 3.118 9.367c.667.361 11.522 6.637 12.054 27.848.094 3.816 3.238 6.849 7.048 6.849" fill="#425059"/><path d="M88.406 148.044c-21.767-13.556-50.41-6.954-64 14.714L68.15 190z" fill="#8192a4"/><path d="M53.765 175.286c-4.54 7.266-2.329 16.813 4.933 21.352 7.254 4.535 16.816 2.348 21.355-4.918 4.533-7.256 2.318-16.826-4.936-21.361-7.262-4.54-16.818-2.328-21.352 4.927" fill="#bcc4cd"/><path d="M58.004 177.934c-3.078 4.925-1.573 11.393 3.345 14.466a10.478 10.478 0 0 0 14.458-3.34c3.072-4.916 1.589-11.385-3.334-14.462-4.917-3.073-11.397-1.58-14.469 3.336M68.406 261v7h11.411l2.59-7zM150.406 260v7h-11.415l-2.585-7z" fill="#8192a4"/><path d="M149.977 264.794c-.558 0-1.048.203-1.458.497-.597-.763-1.52-1.291-2.612-1.291-1.095 0-2.016.528-2.614 1.291-.409-.294-.9-.497-1.458-.497-1.342 0-2.429 1.009-2.429 2.253 0 .388 1.087.704 2.43.704.557 0 1.048-.064 1.457-.156.598.239 1.519.405 2.614.405 1.093 0 2.015-.166 2.61-.405.412.092.902.156 1.46.156 1.34 0 2.43-.316 2.43-.704 0-1.244-1.09-2.253-2.43-2.253" fill="#ff8f33"/><path d="M10.571.794c-.559 0-1.049.203-1.459.497C8.515.528 7.592 0 6.5 0 5.406 0 4.484.528 3.887 1.291c-.41-.294-.9-.497-1.459-.497C1.087.794 0 1.803 0 3.047c0 .388 1.087.704 2.428.704.56 0 1.05-.064 1.459-.156C4.484 3.835 5.406 4 6.5 4c1.093 0 2.015-.166 2.612-.405.41.092.9.156 1.46.156 1.34 0 2.428-.316 2.428-.704C13 1.803 11.912.794 10.571.794" fill="#ff8f33" mask="url(#b)" transform="translate(68.406 265)"/><path d="m186.012 182-4.606-8.634L214.785 156l4.621 8.627z" fill="#9f582c"/><path d="M210.82 154.662c1.305 2.438.357 5.447-2.111 6.736l-3.897 2.028c-2.465 1.28-5.52.347-6.82-2.079a4.948 4.948 0 0 1 2.11-6.736l3.892-2.036c2.47-1.284 5.53-.343 6.826 2.087" fill="#ff8f33"/><path d="m236.465 156-5.059-9.604L281.354 120l5.052 9.605z" fill="#425059"/><path d="m220.406 141.085 9.97 8.915 46.694-24.5 3.558.396 30.778-16.152L285.343 107z" fill="#bcc4cd"/><path d="M232.406 153.765 234.172 167l64.819-34.055L311.406 110l-30.719 16.14-1.673 3.143z" fill="#8192a4"/><path d="M216.406 160.382 235.19 172l1.217-22.385L217.627 138zM190.314 186.307c2.658-1.356 3.824-4.222 2.615-6.444l-5.777-10.597c-1.206-2.218-4.328-2.935-6.984-1.58-2.386 1.217-3.576 3.693-2.892 5.79-1.651 1.04-2.344 2.938-1.525 4.44l3.345 6.12c.827 1.501 2.812 2.027 4.648 1.318 1.405 1.73 4.178 2.177 6.57.953" fill="#8192a4"/><path d="M232.28 164.67c5.613-2.955 7.754-9.924 4.797-15.532-2.963-5.616-9.916-7.768-15.533-4.812-5.619 2.97-7.772 9.926-4.805 15.543 2.964 5.617 9.912 7.76 15.54 4.801" fill="#425059"/><path d="M229.21 160.304a6.01 6.01 0 0 0 2.506-8.103 6 6 0 0 0-8.1-2.508 5.994 5.994 0 0 0-2.515 8.107c1.543 2.935 5.171 4.05 8.108 2.504" fill="#eb4900"/></g></svg>