<svg height="261" width="363" xmlns="http://www.w3.org/2000/svg"><linearGradient id="a" x1="3.862%" x2="91.18%" y1="25.385%" y2="60.109%"><stop offset="0" stop-color="#89603f"/><stop offset="1" stop-color="#62442f"/></linearGradient><mask id="b" fill="#fff"><path d="M30.612.827C-.596 6.208.137 20.93 0 21.058c20.433-9.422 20.468.622 20.468.622s25.048-14.79 35.594-2.63c10.547 12.161 12.634 4.93 16.15 11.504C74.546 34.921 74.627 54 74.627 54L81 51.152s-1.846-15.97-2.197-19.94c-.66-7.45-5.932-12.929-5.932-12.929S64.14.003 39.879 0c-2.87 0-5.952.255-9.267.827" fill-rule="evenodd"/></mask><g fill="none" fill-rule="evenodd"><path d="M228.544 0s-11.296 18.585-3.034 36.999c-5.055 11.995-1.517 21.458 4.888 29.736-4.216 6.417-6.405 25.17 2.698 40.209-9.948-2.198-26.972-31.935-31.192-39.704-4.21-7.772-17.36-46.29 26.64-67.24" fill="#e08a44"/><path d="M205.951 65.888c8.378-1.999 16.44-1.467 24.438.833-5.582-7.22-8.983-15.34-6.405-25.257-7.749 6.815-15.241 14.048-18.033 24.424M201.904 58.792c5.746-8.851 13.03-18.09 23.544-21.638.022-.051.04-.103.062-.156-6.992-15.581.022-31.28 2.345-35.743-18.462 12.886-27.415 34.974-25.95 57.537M224.48 70.325c-7.338.97-11.075 2.96-17.166 6.346 7.046 11.733 18.377 28.637 25.782 30.273-7.913-13.075-7.29-28.947-4.224-37.094-.726.337-3.672.377-4.392.475" fill="#ffcc71"/><path d="M219.105 107.28s-4.891-22.808-23.941-39.533c-4.552-11.32-2.026-56.597 33.38-67.747-12.473 7.772-35.91 22.133-28.32 59.3 2.189-5.743 15.002-21.455 25.286-22.301-6.745 3.886-20.89 16.913-21.412 28.215 7.418-1.691 18.882-2.872 26.3 1.52-7.922-.168-23.938 3.21-23.938 3.21 7.081 6.59 18.546 25.68 20.23 34.633 1.686 8.953-7.585 2.704-7.585 2.704" fill="#06bbf9"/><path d="m184.907 71.628-.027-.31c-.31-3.53 1.04-7.456 3.623-10.496 1.61-1.902 3.458-3.103 4.94-3.211l.08-.007.07.044c2.668 1.671 5.414 7.863 3.521 11.777l-.066.137-.155.005c-5.427.123-11.624 1.95-11.69 1.972z" fill="#f7ddc6"/><path d="M180.2 161.048s-1.349 4.051.845 7.983c2.274-.887 3.835-3.679 4.383-5.195-.167-2.242-2.826-4.986-5.227-2.788" fill="#e2c2aa"/><path d="M180.2 161.048s-1.349 4.051.845 7.983c.34-.133.664-.315.969-.519 1.128-2.314 1.327-5.43 1.606-7.752-.978-.678-2.23-.798-3.42.288" fill="#f7ddc6"/><path d="M180.422 161.186c-.148.51-1.086 4.06.734 7.521 2.088-.944 3.52-3.568 4.016-4.906-.146-1.543-1.513-3.307-3.1-3.307-.571 0-1.128.235-1.65.692zm.508 8.16-.106-.191c-2.222-3.98-.92-8.018-.862-8.186l.02-.063.048-.048c.635-.576 1.32-.87 2.042-.87 1.87 0 3.476 2.058 3.609 3.826l.004.053-.022.053c-.553 1.548-2.136 4.415-4.529 5.346z" fill="#e2c2aa"/><path d="M184.416 164.873s-.465 5.044 3.078 7.956c2.105-1.644 3.286-4.22 3.37-6.883-1.936-1.817-5.223-2.105-6.448-1.073" fill="#e2c2aa"/><path d="M187.994 164.461c-1.446-.341-2.866-.19-3.578.412 0 0-.465 5.044 3.078 7.956.177-.137.34-.297.504-.447.544-2.576.456-5.305-.004-7.92" fill="#f7ddc6"/><path d="M184.659 165.002c-.035.722-.115 4.924 2.84 7.5 1.866-1.539 2.994-3.874 3.109-6.446-1.252-1.12-2.928-1.524-4.096-1.524-.773 0-1.442.168-1.853.47zm2.83 8.15-.159-.128c-3.6-2.965-3.184-7.964-3.167-8.173l.01-.106.079-.067c.5-.42 1.3-.651 2.26-.651 1.65 0 3.384.665 4.525 1.733l.084.08-.004.115c-.089 2.845-1.354 5.425-3.468 7.074z" fill="#e2c2aa"/><path d="M190.4 166.145s.929 4.322 3.627 5.416c2.15-1.9 2.15-4.09 1.809-5.744-.633-1.644-5.064-1.37-5.436.328" fill="#e2c2aa"/><path d="M193.337 164.723c-1.336.004-2.738.5-2.937 1.422 0 0 .929 4.322 3.627 5.417.155-.138.292-.275.429-.417-.004-2.14-.548-4.281-1.119-6.422" fill="#f7ddc6"/><path d="M190.657 166.15c.12.492 1.048 4.06 3.321 5.115 1.535-1.419 2.066-3.187 1.61-5.395-.208-.527-1.088-.9-2.233-.9-1.16 0-2.473.413-2.698 1.18zm3.419 5.709-.147-.062c-2.79-1.135-3.741-5.412-3.78-5.598l-.01-.053.014-.054c.247-1.117 1.83-1.626 3.202-1.626 1.079 0 2.362.332 2.72 1.263.513 2.495-.107 4.454-1.884 6.023z" fill="#e2c2aa"/><path d="m190.93 165.627.13.155c.176.217.804.434 1.808.434 1.017 0 2.318-.466 3.021-.825.77-1.183 1.004-3.155 1.008-3.173l.04-.2h.208c.221 0 .478-.145.739-.42.81-.851 1.588-2.899 1.495-4.849l-.005-.133.107-.084a22.923 22.923 0 0 0 2.87-2.536c-1.5-.55-7.546-2.636-12.389-2.636-1.937 0-3.459.332-4.529.988-.067.04-6.527 3.664-5.419 8.447 1.52.248 2.663.856 4.46 2.74l.048.053.017.07c.124.683.138 1.233.133 1.494 1.385.64 2.858 1.007 4.07 1.007.778 0 1.454-.146 2.003-.435z" fill="#06bbf9"/><path d="M183.969 162.96c-.275-6.45 3.1-7.7 3.1-7.7 0 .155-.101.257-.287.443-.615.607-2.481 2.46-2.243 7.991zM190.45 165.86c-1.202-4.899 1.44-6.9 1.44-6.9-.021.023-2.173 2.092-1.04 6.706z" fill="#05a2c6"/><path d="M185.389 199.405s-6.747 3.014-5.925 6.879c3.35.882 6.575.323 8.472-.506.063-2.096-2.547-6.373-2.547-6.373" fill="#e2c2aa"/><path d="M187.079 201.666c-.74-1.255-1.69-2.26-1.69-2.26s-6.4 2.446-5.76 6.235c2.89-.784 5.711-1.821 7.45-3.975" fill="#f7ddc6"/><path d="M179.681 206.075c1.063.27 2.165.404 3.288.404 1.673 0 3.38-.315 4.715-.869-.062-1.79-1.91-5.048-2.397-5.877-1.079.527-6.108 3.156-5.606 6.342m3.288.91c-1.22 0-2.421-.156-3.571-.457l-.148-.04-.034-.155c-.853-4.02 5.788-7.03 6.07-7.158l.2-.089.12.19c.106.177 2.649 4.362 2.583 6.512l-.005.159-.146.067c-1.42.615-3.264.97-5.069.97" fill="#e2c2aa"/><path d="M188.693 205.078s-4.237 3.103-4.551 6.396c3.162 1.396 5.28 1.144 7.73-.443 1.753-2.278-3.18-5.953-3.18-5.953" fill="#e2c2aa"/><path d="M191.063 206.404c-1.088-.803-2.37-1.326-2.37-1.326s-4.198 3.08-4.543 6.36c2.857-.797 5.83-2.477 6.913-5.034" fill="#f7ddc6"/><path d="M184.416 211.319c1.283.545 2.406.81 3.423.81 1.278 0 2.473-.393 3.857-1.285.252-.345.345-.735.283-1.187-.243-1.75-2.654-3.759-3.286-4.26-.73.572-3.893 3.187-4.277 5.922m3.423 1.32c-1.137 0-2.375-.305-3.799-.93l-.169-.076.019-.181c.322-3.369 4.48-6.45 4.652-6.578l.15-.11.151.11c.137.102 3.33 2.505 3.636 4.712.084.603-.053 1.143-.407 1.6l-.062.062c-1.49.962-2.778 1.391-4.17 1.391" fill="#e2c2aa"/><path d="M222.98 170.804s-16.52 7.601-5.9 28.89c-7.25-4.562-28.427-14.193-29.449-2.412-3.803 1.396-3.945 7.987 2.637 9.884-1.513 3.045-.045 5.576 5.736 4.56 5.776-1.01 12.477-1.316 20.443.231 7.966 1.547 14.92-2.509 14.795-8.208-.128-5.705 5.436-7.73 9.103-9.126 3.67-1.392-4.003-19.764-17.365-23.82" fill="#05a2c6"/><path d="M222.98 170.804s-16.52 7.601-5.9 28.89c-7.25-4.562-27.87-12.677-28.891-.892-3.805 1.397-2.27 6.414 4.312 8.31-1.508 3.046.004 3.649 5.781 2.633 5.781-1.014 9.611-1.968 17.577-.425 7.966 1.551 12.137-2.274 12.013-7.978-.128-5.7 7.121-9.716 10.788-11.112 3.667-1.392-2.318-15.371-15.68-19.426" fill="#06bbf9"/><path d="M207.283 193.865c-5.693-2.407-12.456.634-9.802 6.462 2.654 5.828 13.782 5.447 13.782 5.447l6.224-5.775c-1.464-1.317-4.517-3.727-10.204-6.134" fill="#05a2c6"/><path d="M207.283 193.865c-5.693-2.407-10.138.5-7.484 6.329 2.654 5.828 11.464 5.58 11.464 5.58l6.224-5.775c-1.464-1.317-4.517-3.727-10.204-6.134" fill="#06bbf9"/><path d="M193.434 202.503c-1.472 0-3.241-.27-4.494-1.325-1.119-.944-1.632-2.367-1.525-4.228l.504.03c-.098 1.69.358 2.97 1.344 3.808 2.287 1.937 6.728.949 6.772.94 0 0-1.145.775-2.6.775" fill="#05a2c6"/><path d="M192.112 207.64c-.703 0-.698.055-1.441-.166l-.594-.631c3.132.952 6.303-.768 6.334-.785 0 0-1.853 1.582-4.3 1.582" fill="#06bbf9"/><path d="M182.31 196.524s3.225 3.692 6.635 3.08c2.088-2.065 1.305-5.562.747-6.568-1.123-1.072-5.74 1.015-7.382 3.488" fill="#e2c2aa"/><path d="M190.183 196.653c.19-1.375-.115-2.934-.49-3.617-1.106-1.055-5.273.93-6.972 3.346" fill="#f7ddc6"/><path d="M182.633 196.502c.58.607 2.955 2.916 5.538 2.916a4.6 4.6 0 0 0 .655-.048c1.826-1.884 1.238-5.089.663-6.175-.15-.128-.407-.194-.734-.194-1.628 0-4.764 1.63-6.122 3.501m5.538 3.426c-3.189 0-5.936-3.103-6.051-3.236l-.128-.146.106-.164c1.393-2.092 4.826-3.887 6.657-3.887.486 0 .862.12 1.114.355l.044.062c.558 1.01 1.443 4.663-.787 6.874l-.057.053-.076.014c-.27.048-.544.075-.822.075M198.07 201.342s3.976-3.302 1.672-7.588c-4.158-.82-7.87 2.455-7.87 2.455.341 1.202 4.216 4.925 6.198 5.133" fill="#e2c2aa"/><path d="M199.184 199.676s2.344-1.755.558-5.922c-4.158-.82-7.568 2.535-7.568 2.535.34 1.206 5.029 3.174 7.01 3.387" fill="#f7ddc6"/><path d="M192.174 196.29c.548 1.2 3.963 4.48 5.816 4.79.553-.5 3.494-3.39 1.583-7.095a6.64 6.64 0 0 0-1.198-.107c-3.017 0-5.6 1.924-6.201 2.411zm5.975 5.318-.106-.014c-2.132-.221-6.06-4.064-6.414-5.314l-.043-.155.118-.106c.125-.106 3.044-2.651 6.67-2.651.479 0 .956.05 1.416.138l.12.026.057.107c2.371 4.415-1.694 7.862-1.734 7.898z" fill="#e2c2aa"/><path d="M123.51 141.657s19.727 6.59 44.005-8.359c24.279-14.954 54.028-46.357 88.421-28.11 34.394 18.248 39.37 29.6 47.128 45.919 7.753 16.32-2.022 56.188 1.349 69.364 3.37 13.178 15.511 19.937 22.929 12.84 7.417-7.095 5.32-32.744 6.404-44.6 1.434-15.624 8.43-24.432 8.43-24.432-2.025.103-9.779 4.752-9.779 4.752.336-7.349 8.47-20.912 22.846-23.633 6.068 8.443.42 23.04-6.661 30.472-.673-5.745-3.035-9.804-3.035-9.804-3.706 4.737-8.09 14.462-8.09 25.48 0 11.02 6.913 45.157-8.194 54.625-15.507 9.8-47.78 5.052-59.244-35.836-18.21-2.704-36.406-9.303-51.718-39.532-18.657-36.831-68.657.32-86.865-4.737-15.51-14.52-7.926-24.409-7.926-24.409" fill="#06bbf9"/><path d="M255.936 105.189c-22.367-11.865-42.77-2.73-60.985 9.219-1.14 13.611-4.246 27.75-10.19 40.293 13.508-1.542 26.051 1.316 33.54 16.103 15.312 30.228 33.508 36.827 51.718 39.531a88.532 88.532 0 0 0 1.252 4.077c4.582-13.425 14.512-26.075 27.993-32.333-.212-11.47-1.101-22.427-4.294-29.15-7.754-16.316-4.64-29.493-39.034-47.74" fill="#06bbf9"/><path d="M291.431 226.047c-4.807-16.727-8.346-57.778-38.693-77.037-30.346-19.263-58.923-8.11-85.477 2.097-17.836 6.856-33.963 7.269-42.627 6.808 1.502 2.5 3.684 5.23 6.803 8.15 18.207 5.058 68.207-32.093 86.863 4.739 15.313 30.228 33.51 36.827 51.72 39.531 7.744 27.621 22.659 36.442 37.16 39.58-6.92-2.202-12.166-11.391-15.749-23.868" fill="#ffcc71"/><path d="M252.738 149.01c-22.115-14.037-43.293-11.923-63.435-5.788.05-.042-18.335 4.808-19.397 7.334 14.937-1.666 45.409 1.45 53.172 16.782 15.308 30.21 68.447 59.622 68.447 59.622l-1.209-7.266s-10.656-56.587-37.578-70.684" fill="#fcb608"/><path d="m220.707 175.404-.169-.478c20.563-7.176 29.259-27.405 29.343-27.605l.47.196c-.09.204-8.874 20.64-29.644 27.887M275.252 224.305h-.071l.004-.51h.067c7.656 0 14.198-5.052 14.264-5.1l.31.398c-.066.053-6.746 5.212-14.574 5.212M237.908 197.211l-.133-.487c10.103-2.842 20.183-16.475 20.28-16.608l.411.297c-.102.142-10.283 13.913-20.558 16.798M250.217 205.038l-.203-.46c9.213-4.083 11.491-9.18 11.513-9.233l.464.2c-.092.217-2.357 5.327-11.774 9.493" fill="#d37105"/><path d="M201.736 172.83s-1.092 5.916 1.858 9.63c2.614-1.94 4.317-5.491 3.592-8.532-1.823-1.773-5.45-1.099-5.45-1.099" fill="#e2c2aa"/><path d="M204.713 172.811c-1.526-.252-2.977.018-2.977.018s-1.092 5.917 1.858 9.631c.102-.08.204-.159.3-.243.965-2.997 1.593-6.192.819-9.406" fill="#f7ddc6"/><path d="M201.957 173.051c-.14.98-.707 5.82 1.681 9.055 2.548-2.003 3.928-5.34 3.317-8.045-.981-.908-2.503-1.103-3.622-1.103-.615 0-1.12.057-1.376.093zm1.593 9.76-.155-.19c-2.986-3.768-1.95-9.592-1.907-9.84l.032-.169.172-.031c.031-.004.712-.133 1.641-.133 1.23 0 2.928.226 4.03 1.299l.053.053.017.07c.712 2.975-.84 6.675-3.689 8.794zM212.78 176.295s.244 3.799 3.198 7.349c1.779-1.52 4.724-5.133 4.136-7.805-1.791-1.52-6.573-.475-7.333.456" fill="#e2c2aa"/><path d="M217.708 175.08c-2.035-.101-4.41.582-4.927 1.215 0 0 .243 3.799 3.197 7.349.178-.151.368-.328.562-.518.774-2.59 1.252-5.226 1.168-8.045" fill="#f7ddc6"/><path d="M213.046 176.384c.066.62.518 3.843 2.963 6.897 1.942-1.742 4.304-5.009 3.875-7.3-.695-.541-1.791-.66-2.6-.66-1.788 0-3.708.567-4.238 1.063zm2.906 7.62-.168-.2c-2.972-3.568-3.247-7.336-3.256-7.495l-.004-.098.062-.08c.562-.687 2.8-1.312 4.697-1.312.92 0 2.19.142 2.994.825l.067.057.018.085c.597 2.72-2.27 6.382-4.216 8.049z" fill="#e2c2aa"/><path d="M206.124 174.35s-.257 7.605 2.694 11.998c2.278-1.946 5.48-5.642 4.891-10.51-1.6-2.84-7.585-1.488-7.585-1.488" fill="#e2c2aa"/><path d="M210.733 174.141c-2.18-.336-4.61.209-4.61.209s-.256 7.605 2.695 11.998c.367-.315.756-.674 1.15-1.077 1.415-3.568 1.136-7.331.765-11.13" fill="#f7ddc6"/><path d="M206.372 174.558c-.014 1.197.048 7.5 2.503 11.404 2.048-1.808 5.131-5.363 4.587-10.04-.796-1.35-2.76-1.64-4.273-1.64-1.247 0-2.38.191-2.817.276zm2.397 12.166-.159-.235c-2.963-4.41-2.752-11.834-2.738-12.149l.004-.194.19-.04a15.71 15.71 0 0 1 3.123-.328c2.384 0 4.025.67 4.737 1.937l.036.093c.619 5.11-2.853 8.917-4.98 10.73z" fill="#e2c2aa"/><path d="m245.025 137.859-10.425-6.586s-10.775 4.05-8.581 24.324c-10.288-.847-18.803 1.143-23.225 7.73-4.428 6.59-2.279 14.888 3.414 12.512.252 2.566 5.308 4.973 7.586 1.932 1.264 1.36 5.436 1.901 6.32-.758.885-2.663.885-6.715 0-7.982 1.393-.887 2.278-2.54 1.393-4.313 2.906 1.525 13.751 2.008 16.335.634 2.583-1.365 10.208-20.144 7.183-27.493" fill="#05a2c6"/><path d="m245.273 136.244-10.425-6.586s-11.023 5.666-8.83 25.939c-10.287-.847-18.802 1.143-23.224 7.73-4.428 6.59-2.862 12.822 2.826 10.45.252 2.563 6.528 4.336 8.806 1.29 1.265 1.361 3.79 3.298 4.68.634.884-2.659.168-5.7-.717-6.967 1.39-.887 2.69-3.932 1.8-5.704 2.91 1.524 13.345.359 15.928-1.011 2.587-1.37 12.181-18.426 9.156-25.775" fill="#06bbf9"/><path d="M251.601 244.166s-1.203 3.338-.822 6.325c.38 2.988 1.327 4.322 2.15 4.446.823.128 4.613-4.056 5.245-5.386.633-1.33-2.34-4.941-6.573-5.385" fill="#e2c2aa"/><path d="M251.601 244.166s-1.203 3.338-.822 6.325c.38 2.988 1.486 2.77 2.304 2.894.823.129 3.689-4.782 4.322-6.112.632-1.33-1.57-2.663-5.804-3.107" fill="#f7ddc6"/><path d="M251.774 244.441c-.239.745-1.061 3.528-.743 6.019.35 2.766 1.225 4.118 1.933 4.229h.004c.672 0 4.304-3.825 4.98-5.244.138-.293.04-.776-.273-1.325-.88-1.578-3.176-3.32-5.901-3.679m1.19 10.753-.075-.005c-1.128-.177-2.013-1.918-2.362-4.667-.385-3.014.783-6.302.836-6.44l.066-.19.199.022c2.981.314 5.52 2.23 6.488 3.953.399.71.5 1.348.288 1.795-.597 1.26-4.37 5.532-5.44 5.532" fill="#e2c2aa"/><path d="M255.012 247.145s.318 4.942 1.897 8.106c1.583 3.17 2.34 3.675 3.225 3.741.884.062 3.919-7.539 4.109-10.074.19-2.536-6.383-2.85-9.231-1.773" fill="#e2c2aa"/><path d="M255.012 247.145s.703 4.778 1.897 8.106c.589 1.645 2.181 2.062 3.07 2.124.885.066 2.875-7.172 3.065-9.703.19-2.535-5.184-1.604-8.032-.527" fill="#f7ddc6"/><path d="M255.281 247.317c.076.932.492 5.084 1.854 7.824 1.61 3.222 2.313 3.545 3.003 3.598.77-.287 3.667-7.326 3.853-9.839.026-.323-.08-.603-.319-.86-.699-.753-2.521-1.228-4.75-1.228-1.363 0-2.707.191-3.64.505m4.865 11.928h-.031c-1.03-.075-1.844-.696-3.432-3.878-1.584-3.178-1.911-8-1.924-8.204l-.009-.191.172-.067c1.009-.38 2.464-.598 3.999-.598 2.401 0 4.317.519 5.121 1.388.337.363.487.78.452 1.24-.155 2.093-3.1 10.31-4.348 10.31" fill="#e2c2aa"/><path d="M263.296 249.108s-.062 5.829 1.517 8.426c1.58 2.597 2.973 3.421 3.539 3.17.57-.254 3.923-7.753 3.923-10.213 0-2.46-5.693-3.599-8.979-1.383" fill="#e2c2aa"/><path d="M263.296 249.108s-.062 5.829 1.517 8.426c1.58 2.597 2.614 1.963 3.185 1.71.566-.252 2.773-7.831 2.773-10.29 0-2.46-4.189-2.062-7.475.154" fill="#f7ddc6"/><path d="M263.548 249.246c.005.882.089 5.868 1.482 8.155 1.482 2.438 2.645 3.094 3.1 3.094a.299.299 0 0 0 .12-.022c.486-.368 3.773-7.478 3.773-9.982 0-1.299-1.968-2.318-4.476-2.318-1.504 0-2.92.381-3.999 1.073M268.131 261c-.73 0-2.04-.878-3.534-3.333-1.601-2.628-1.557-8.32-1.553-8.558v-.138l.11-.071c1.177-.793 2.738-1.228 4.393-1.228 2.415 0 4.98.984 4.98 2.82 0 2.41-3.326 10.11-4.07 10.441a.785.785 0 0 1-.326.067" fill="#e2c2aa"/><path d="m276.229 117.417-5.538 34.97s-20.903 15.882-19.89 36.491c1.009 20.615 22.084 32.609 19.89 36.496-2.189 3.883-31.606 13.85-15.68 23.482 1.266-1.015 6.914.062 8.772 1.635 2.61-1.13 5.984-.62 7.753 1.91 3.795-1.688 3.202-5.828 4.215-7.938 1.013-2.11 9.78-9.63 10.62-15.712.845-6.08-4.887-11.488-4.887-13.682 0-2.199 3.202-9.127 9.947-12.672 6.74-3.55 15.171-20.952 16.352-28.384 1.181-7.433 8.94-31.939-31.554-56.596" fill="#05a2c6"/><path d="m276.229 117.417-13.049 31.818 7.511 3.152s-20.903 15.882-19.89 36.491c1.009 20.615 22.084 32.609 19.89 36.496-2.189 3.883-28.32 13.726-15.94 20.051 1.265-1.015 6.604.097 8.457 1.671 2.614-1.125 6.9-.204 8.669 2.336 2.357-1.507 1.473-4.02 2.486-6.13 1.008-2.114 8.204-8.638 9.05-14.72.844-6.08-4.061-10.646-4.5-12.795-.658-3.245-4.55-10.008 6.278-20.442 5.493-5.288 13.52-17.72 16.692-24.541 3.153-6.777 9.341-32.099-25.654-53.387" fill="#06bbf9"/><path d="M254.782 248.953c-.69-1.596-.699-3.501-.01-5.226.664-1.666 1.868-2.947 3.39-3.594 3.016-1.286 6.218-6.13 6.249-6.179 0 0-2.898 5.302-6.051 6.644-1.398.594-2.504 1.773-3.118 3.316-.637 1.6-.637 3.364.004 4.84zM263.584 250.62c-2.03-3.555.902-6.888 2.26-8.16 1.91-1.79 4.109-5.239 4.131-5.275 0 0-1.827 3.808-3.786 5.643-1.27 1.192-4.017 4.304-2.168 7.539z" fill="#05a2c6"/><path d="M251.137 109.404s28.493-13.107 52.179-11.076c4.467-8.111 13.561-11.347 23.345-12.517 1.69-6.068 15.6-23.216 36.339-26.764-14.419-7.349-51.59-11.815-76.377-.33-22.504 15.282-35.486 50.687-35.486 50.687" fill="#e08a44"/><path d="M282.833 77.545c-8.44 5.168-9.93 16.869-15.34 25.818 10.063-3.08 23.288-5.997 35.34-5.075-3.834-11.33-11.013-26.749-20-20.743M304.93 95.877c4.525-5.926 11.982-8.67 20.081-9.845-8.298-7.787-19.165-13.154-30.041-16.088 6.267 7.242 8.85 16.328 9.96 25.933M355.848 60.87c-16.228-5.424-33.557-7.765-50.255-2.584-3.034 1.014-5.564 1.52-8.598 2.536 11.283 6.331 22.567 13.474 29.896 24.302 2.15-5.762 12.884-18.802 28.957-24.253" fill="#ffcc71"/><path d="M291.683 59.554c20.864-10.252 51.082-6.083 71.317-.508-23.521-19.26-77.638-6.843-77.638-6.843l-9.359 8.364c-14.666 28.892-36.445 44.094-36.445 44.094l11.915 9.884c11.633-4.813 22.51-44.349 30.095-44.602 7.585-.253 16.688 19.259 21.748 28.384 0-8.616-7.333-24.58-15.171-31.677 13.402.253 31.102 12.162 39.45 20.016-2.28-6.081-25.292-25.339-35.912-27.112" fill="#06bbf9"/><path d="m275.017 62.46-.08-.187c-.044-.108-4.617-10.88-6.236-13.888l-.15-.277.3-.086c1.805-.519 3.592-.783 5.313-.783 7.31 0 11.35 4.754 11.389 4.803l.097.113-.053.135c-3.171 8.78-10.31 10.123-10.38 10.136z" fill="#f7ddc6"/><g fill="#d37105"><path d="m141.236 166.15-.37-.346c3.563-3.856.027-8.178-.008-8.217l.386-.328c.04.049 3.855 4.711-.008 8.891M151.387 163.57l-.43-.27c2.502-4.002.04-7.286.014-7.322l.4-.306c.027.036 2.7 3.599.016 7.898M161.706 160.348l-.458-.217c1.49-3.214.405-7.021.393-7.061l.487-.141c.049.163 1.148 4.033-.422 7.419M175.333 156.563l-.42-.28c3.164-4.79.858-8.168.758-8.31l.412-.292c.026.035 2.616 3.79-.75 8.882M190.475 154.475l-.415-.288c3.688-5.305 2.967-12.02 2.958-12.087l.5-.057c.01.07.757 6.972-3.043 12.432M202.48 156.293l-.28-.426c10.537-6.945 8.679-16.962 8.66-17.064l.492-.098c.022.102 1.946 10.456-8.873 17.588M227.637 186.215l-.097-.497c17.622-3.364 35.075-28.366 35.252-28.614l.415.288c-.176.252-17.749 25.419-35.57 28.823M283.487 236.866l-.075-.5c8.25-1.22 9.607-4.508 9.62-4.539l.474.173c-.054.15-1.43 3.599-10.019 4.866M293.777 245.125l-.537-.387c2.685-.297 4.365-3.6 4.382-3.631l.355.484c-.066.133-1.25 3.206-4.2 3.534"/></g><path d="M205.867 175.914c-1.154-7.14 2.641-11.036 2.641-11.036-.03.044-3.26 4.055-2.14 10.956zM213.984 177.913l-.483-.16c2.637-7.809.545-10.393.523-10.415 0 0 2.706 2.442-.04 10.575" fill="#05a2c6"/><path d="M68.387 120.026s-1.134-9.977 2.213-18.08c3.353-8.101 6.565-9.724 8.64-9.014 2.075.704-.603 16.297 7.19 22.573-1.999 7.429-14.589 7.566-18.043 4.52M106.091 109.45s1.56-7.215-.292-13.371c-1.851-6.157.299-8.652 3.269-8.892 2.972-.243 15.204 8.683 15.348 26.886-8.161 2.629-18.325-4.622-18.325-4.622" fill="#f7ddc6"/><path d="M61.578 165.088s-6.741-35.652 1.773-44.89c8.514-9.232 20.413-4.147 20.413-4.147 4.993-6.343 22.608-15.948 42.784-4.575 20.173 11.369 35.835 29.882 27.195 56.973-8.64 27.085-39.209 25.72-47.986 26.052-8.773.333-13.017 1.986-14.954 4.162-1.94 2.18-8.127 12.548-18.15 9.166-10.023-3.378-8.585-10.172-5.334-14.383 3.255-4.21-5.741-28.358-5.741-28.358" fill="#05a2c6"/><path d="M63.351 120.199c8.514-9.233 20.413-4.148 20.413-4.148 4.993-6.343 22.608-15.948 42.784-4.575 20.173 11.369 33.31 28.787 23.816 55.585-6.555 18.505-33.063 22.631-41.838 22.964-8.775.336-14.27 3.031-16.21 5.212-1.94 2.18-11.68 12.512-20.176 10.057-10.165-2.934-8.072-7.637-4.821-11.848 3.255-4.21-5.741-28.358-5.741-28.358s-6.741-35.652 1.773-44.89zM47.503 166.352s-4.657-4.308-8.677 1.268c-4.023 5.58 1.93 15.096 6.13 12.388 4.2-2.713 2.547-13.656 2.547-13.656" fill="#06bbf9"/><path d="M93.52 179.108c-6.972 1.418-21.648 7.845-24.208 13.275-.025.044-1.655 3.075-.73 5.633.457 1.267 1.474 2.216 3.023 2.823.568.226 1.291.253 2.147.076 7.442-1.512 21.918-16.661 23.157-21.838-.259-.28-1.26-.404-3.388.03" fill="#00636d"/><path d="M74.789 157.443s-12.2-3.448-21.907 2.881c-9.704 6.33-13.271 17.343-8.72 26.7 4.553 9.361 10.774 10.27 24.694 8.044 13.917-2.224 26.065-15.584 26.065-15.584z" fill="#06bbf9"/><path d="M90.319 177.034s2.965 6.294 18.713 2.965z" fill="#06bbf9"/><path d="M97.28 180.978c-5.64-1.037-6.75-4.046-6.75-4.046.032.057 3.099 6.063 18.454 2.836 0 0-6.502 2.172-11.703 1.21" fill="#008399"/><path d="M117.44 165.474c-18.3-6.595-30.574 7.216-30.574 7.216s13.887.102 22.69-2.478c8.807-2.575 7.884-4.738 7.884-4.738" fill="#06bbf9"/><path d="M69.08 145.91c-.483 4.676-3.143 8.235-5.943 7.947-2.8-.288-4.68-4.316-4.2-8.997.482-4.676 3.143-8.235 5.943-7.947 2.799.288 4.68 4.317 4.2 8.997" fill="#000"/><path d="M64.165 181.444s-5.257-17.605 5.907-15.841c5.863.921-.55 14.569-5.907 15.84" fill="#008399"/><path d="M70.975 161.778c-.33-.133-8.11-3.21-11.478 4.419-3.568 8.089 1.817 15.637 1.873 15.717 0 0-2.679-2.94-3.368-7.385-.394-2.539-.275-5.49 1.063-8.523 1.59-3.604 3.611-4.65 6.524-5.279 2.914-.63 5.386 1.051 5.386 1.051" fill="#008399"/><path d="M135.217 125.265s9.074-24.754 26.427-34.252c.195 5.93 12.734 20.175 20.567 26.234-1.194 9.192.726 21.478 2.982 26.053-4.176 5.403-8.904 16.408-7.515 20.282-6.542.518-15.096 1.937-16.498 4.201-6.002-4.769-12.09-15.53-15.874-21.9-3.782-6.368-7.736-17.746-10.09-20.618" fill="#e08a44"/><path d="M182.074 117.14c-7.31-5.704-18.58-18.362-20.226-24.824-11.5 14.25-22.542 30.134-19.081 48.697.062.137.129.265.19.398 3.539-15.796 23.712-21.615 39.117-24.27" fill="#ffcc71"/><path d="M149.295 146.283c10.025-7.096 24.588-6.822 35.898-2.983-2.15-4.366-3.994-15.744-3.127-24.754-11.085 4.366-28.089 9.924-32.226 18.509-1.34 3.798-.956 7.872-3.358 10.815.186.31.374.633.566.956a6.856 6.856 0 0 1 2.247-2.543M161.18 167.784c1.128-1.818 6.864-3.09 12.464-3.794a68.684 68.684 0 0 0-21.11-6.379c2.713 4.016 5.692 7.823 8.646 10.173" fill="#ffcc71"/><path d="M184.405 144.377c-7.386-1.13-19.625.465-25.764 2.34-6.488 2.934-5.128 3.484-8.05 7.925.126.2.254.399.383.598 9.204-2.15 18.389 3.218 26.244 8.377.15-.013.305-.026.46-.035-1.3-3.635 2.773-13.532 6.727-19.205" fill="#ffcc71"/><path d="M186.024 143.424c-12.64-6.977-35.435 1.503-38.122-4.605-2.685-6.108 19.789-19.755 35.561-21.754-19.753-2.15-39.033 15.925-42.492 11.967-5.343-6.107 9.565-27.896 20.673-38.02-21.686 12.154-28.36 34.647-28.36 34.647l17.564 36.035c3.828-.173 5.296 2.309 10.483 6.457-1.847-4.946-8.871-11.018-8.831-12.6.041-1.583 14.302 2.659 26.111 8.483-18.866-15.039-27.92-8.479-27.473-14.618.446-6.143 27.385-7.264 34.886-5.992" fill="#06bbf9"/><path d="M57.212 199.58s-11.6-.43-18.614-2.872c-10.222-3.563-20.258-2.251-23.852-.917 2.811 1.161 6.69 5.217 10.361 6.644-5.65-.869-19.149 10.039-25.107 8.785 6.376 3.656 17.42 4.135 22.489 1.338-1.94 2.34-3.262 5.354-3.262 5.354 4.425.39 13.026-.678 20.985-7.668 8.477-7.441 17-10.663 17-10.663" fill="#ff0606"/><path d="M20.293 196.557s5.135 4.282 10.385 5.953c-5.904 2.252-19.174 9.87-24.682 8.896 4.938 1.48 18.455-2.239 22.94-4.153-.803 3.36-3.377 6.546-3.377 6.546 10.252-2.881 11.422-9.179 24.36-13.67-5.896-.092-19.745-5.664-29.626-3.572" fill="#ff8500"/><path d="M25.78 198.206s9.51.745 18.698 2.589c-3.706 1.378-11.482 7.92-15.065 10.283.286-2.176 3.245-6.046 3.245-6.046-3.63.86-11.016 2.846-11.016 2.846 6.975-3.112 11.557-5.532 11.557-5.532-3.883-1.29-7.42-4.14-7.42-4.14" fill="#ffe600"/><path d="M63.299 145.276a2.243 2.243 0 0 1-2.241 2.246c-1.238 0-2.242-1.006-2.242-2.246s1.004-2.246 2.242-2.246a2.243 2.243 0 0 1 2.241 2.246" fill="#fff"/><path d="m69.924 156.783-11.09-1.544a1.111 1.111 0 0 1-.992-.982l-2.904-17.434a1.112 1.112 0 0 1 1.214-1.232l16.086 1.871c.723.073 1.183.81.93 1.493l-2.092 17.106a1.11 1.11 0 0 1-1.152.722m-17.519-20.876 3.41 19.14a2.455 2.455 0 0 0 2.197 2.215l12.438 1.857a2.453 2.453 0 0 0 2.545-1.595l2.705-18.768a2.457 2.457 0 0 0-2.056-3.296l-18.552-2.229a2.455 2.455 0 0 0-2.687 2.676M107.295 161.217l-20.807-1.948a1.111 1.111 0 0 1-.993-.982l-1.637-17.433a1.112 1.112 0 0 1 1.215-1.232l27.762 2.678c.723.073 1.183.81.931 1.493l-5.319 16.702a1.11 1.11 0 0 1-1.152.722m-25.814-21.28 1.797 19.14a2.455 2.455 0 0 0 2.197 2.215l22.52 2.26a2.453 2.453 0 0 0 2.545-1.594l5.93-18.364a2.457 2.457 0 0 0-2.056-3.296l-30.247-3.036a2.455 2.455 0 0 0-2.686 2.675" fill="#000"/><path d="M102.497 150.945c-.453 5.043-3.267 8.914-6.287 8.644-3.02-.27-5.102-4.582-4.651-9.63.452-5.044 3.267-8.915 6.287-8.645 3.019.27 5.101 4.583 4.65 9.63" fill="#000"/><path d="M96.263 150.344a2.417 2.417 0 0 1-2.382 2.451 2.417 2.417 0 0 1-2.446-2.387 2.417 2.417 0 0 1 2.381-2.451 2.417 2.417 0 0 1 2.447 2.387" fill="#fff"/><path d="m72.897 147.474 9.888 1.32.659 4.625-11.645-2.202zM113.107 149.822l18.677-8.293 1.098 3.963-21.533 10.128z" fill="#000"/><path d="M30.612.827C-.596 6.208.137 20.93 0 21.058c20.433-9.422 20.468.622 20.468.622s25.048-14.79 35.594-2.63c10.547 12.161 12.634 4.93 16.15 11.504C74.546 34.921 74.627 54 74.627 54L81 51.152s-1.846-15.97-2.197-19.94c-.66-7.45-5.932-12.929-5.932-12.929S64.14.003 39.879 0c-2.87 0-5.952.255-9.267.827" fill="url(#a)" mask="url(#b)" transform="translate(63 99)"/><g fill="#06bbf9"><path d="m135.765 150.706-.212-.33c.42-.29 8.4-3.535 9.308-3.903l.139.368c-3.55 1.442-8.939 3.66-9.235 3.865M135.488 148.26l-.211-.33c.42-.29 8.4-3.534 9.307-3.902l.139.368c-3.55 1.442-8.938 3.66-9.235 3.864M135.35 149.555l-.212-.33c.42-.29 8.4-3.534 9.308-3.903l.139.369c-3.55 1.441-8.939 3.66-9.235 3.864M135.488 152l-.211-.33c.42-.29 8.4-3.534 9.307-3.903l.139.369c-3.55 1.441-8.938 3.66-9.235 3.864M135.211 146.966l-.211-.33c.42-.291 8.4-3.534 9.308-3.903l.139.369c-3.55 1.44-8.94 3.66-9.236 3.864M135.211 145.671l-.211-.33c.42-.29 8.4-3.534 9.308-3.902l.139.368c-3.55 1.442-8.94 3.66-9.236 3.864M135.488 144.233l-.211-.33c.42-.29 8.4-3.534 9.307-3.903l.139.369c-3.55 1.441-8.938 3.66-9.235 3.864"/></g></g></svg>