<svg height="238" width="478" xmlns="http://www.w3.org/2000/svg"><mask id="a" fill="#fff"><path d="M0 0h94v41H0z" fill-rule="evenodd"/></mask><mask id="b" fill="#fff"><path d="M0 0h107.885v28.878H0z" fill-rule="evenodd"/></mask><g fill="none" fill-rule="evenodd"><path d="M168.196 133.556s-21.869-31.445-56.635-10.167c0 0 12.897 36.41-.561 62.654 44.86 10.64 60-3.546 60-3.546z" fill="#425059"/><path d="M50 150.495V170h53v-39z" fill="#62717f"/><path d="M75.494 167C69.698 167 65 162.292 65 156.486 65 150.703 69.698 146 75.494 146 81.301 146 86 150.703 86 156.486 86 162.292 81.3 167 75.494 167" fill="#425059"/><path d="M52.818 166.262c0-.858-.561-1.612-1.369-2.242C53.547 163.1 55 161.682 55 160c0-1.683-1.453-3.1-3.55-4.02.807-.63 1.368-1.384 1.368-2.244 0-2.064-2.774-3.736-6.197-3.736-1.069 0-1.938 1.672-1.938 3.736 0 .86.177 1.614.43 2.244-.657.92-1.113 2.337-1.113 4.02 0 1.682.456 3.1 1.113 4.019a6.009 6.009 0 0 0-.43 2.243c0 2.064.869 3.738 1.938 3.738 3.423 0 6.197-1.674 6.197-3.738" fill="#ea7e2d"/><path d="M62 170H50v-19.57L62 146z" fill="#8192a4"/><path d="M317.553 146.735c1.591 5.04-1.204 10.413-6.234 12.007l-12.065 3.813c-5.032 1.587-10.409-1.207-11.994-6.248l-3.813-12.043c-1.591-5.048 1.204-10.422 6.237-12.009l12.068-3.812c5.03-1.584 10.406 1.212 12 6.252z" fill="#ea7e2d"/><path d="M281 163.593 274.048 141 223 155.397 229.946 178z" fill="#425059"/><path d="M295 163.504 285.494 132 271 136.5l9.5 31.5z" fill="#8192a4"/><path d="M278 117.003C278 147.375 253.352 172 222.942 172h-4.873C187.656 172 163 147.375 163 117.003 163 86.633 187.656 62 218.07 62h4.872C253.352 62 278 86.632 278 117.003" fill="#ff8f33"/><path d="M246 141h26.324c3.6-7.336 5.676-15.55 5.676-24.266 0-19-9.608-35.759-24.238-45.734H246z" fill="#ed751b"/><path d="M272.4 115h.067l2.49 2.43-5.49 5.548c.058.065.093.108.131.146l5.218 5.15c.052.05.122.084.184.126v.067l-2.428 2.49c-1.892-1.87-3.72-3.68-5.425-5.368L261.533 131h-.066c-.609-.626-1.215-1.254-1.827-1.877-.183-.186-.38-.358-.582-.545 1.855-1.882 3.66-3.713 5.473-5.55-.035-.045-.057-.084-.087-.114l-5.444-5.38v-.068c.61-.592 1.222-1.182 1.829-1.778.202-.198.392-.41.597-.627l5.546 5.47c.06-.05.112-.09.159-.136a5239.27 5239.27 0 0 0 5.143-5.212c.051-.051.085-.122.126-.183" fill="#000"/><path d="M199 153.967c0 9.918 8.063 18.033 17.919 18.033h28.162c9.856 0 17.919-8.115 17.919-18.033L199 135z" fill="#ff8f33"/><path d="M265.782 139c.114 0 .23-.024.338-.076 6.756-3.175 14.388-4.664 22.062-4.343.486-.019.797-.312.817-.735a.775.775 0 0 0-.746-.802c-7.942-.33-15.823 1.21-22.808 4.493a.763.763 0 0 0-.368 1.025.784.784 0 0 0 .705.438M290.217 160a.786.786 0 0 0 .706-.435.764.764 0 0 0-.368-1.027c-6.985-3.284-14.858-4.824-22.806-4.494a.776.776 0 0 0-.748.802c.02.423.32.722.817.735 7.677-.336 15.307 1.17 22.062 4.343a.786.786 0 0 0 .337.076M274.786 146.999c.06 0 .122-.007.185-.023a42.807 42.807 0 0 1 21.059 0c.44.11.847-.172.948-.614.102-.448-.16-.896-.58-1.003a44.386 44.386 0 0 0-21.796 0c-.422.107-.681.555-.58 1.003.087.38.408.637.764.637" fill="#425059"/><path d="M238.558 115C226.702 115 217 124.674 217 136.5c0 11.824 9.702 21.5 21.558 21.5h22.884C273.3 158 283 148.324 283 136.5z" fill="#ff8f33"/><path d="m283 136.569-11.583-5.561c-.047-.001-.093-.008-.14-.008C256.213 131 244 143.089 244 158h17.349c11.908 0 21.651-9.644 21.651-21.431" fill="#f2f1e7"/><g fill="#425059"><path d="M283 135.616 271.455 130c-.606 1.495-1.455 3.9-1.455 5.616 0 5.842 3.857 10.726 9.137 12.384A21.784 21.784 0 0 0 283 135.616M261.217 139a.789.789 0 0 1-.338-.076c-6.755-3.175-14.386-4.664-22.06-4.343-.487-.019-.798-.312-.818-.735a.775.775 0 0 1 .746-.802c7.942-.33 15.823 1.21 22.808 4.493.39.184.555.643.368 1.025a.786.786 0 0 1-.706.438M236.783 160a.786.786 0 0 1-.707-.435.764.764 0 0 1 .369-1.027c6.985-3.284 14.858-4.824 22.807-4.494.43.018.765.378.747.802-.02.423-.32.722-.817.735-7.677-.336-15.308 1.17-22.062 4.343a.783.783 0 0 1-.337.076M252.213 146.999a.739.739 0 0 1-.183-.023 42.807 42.807 0 0 0-21.06 0c-.44.11-.847-.172-.948-.614-.101-.448.16-.896.58-1.003a44.381 44.381 0 0 1 21.796 0c.421.107.681.555.58 1.003a.799.799 0 0 1-.765.637"/></g><path d="M271 109.481c.135 0 .263.036.398.038.202-.006.4-.038.602-.038z" fill="#e2c0a8"/><path d="m216.548 107.522-24.667 3.428c-3.107.432-5.881-1.971-5.881-5.095a5.147 5.147 0 0 1 3.62-4.908l24.666-7.707c3.33-1.04 6.714 1.435 6.714 4.908v4.28c0 2.565-1.9 4.74-4.452 5.094M256.401 108.715l18.394 3.206c3.242.565 6.205-1.955 6.205-5.278v-.087a5.353 5.353 0 0 0-3.387-4.994l-18.393-7.195c-3.476-1.36-7.22 1.23-7.22 4.993v4.078c0 2.606 1.858 4.833 4.401 5.277" fill="#c44e12"/><path d="M69.782 39.096C81.58 30.264 94 3.896 94 3.896S77.397-7.002 59.67 7.654C41.946 22.31 23.033-4.183 0 21.934c18.913 1.315 57.985 25.993 69.782 17.162" fill="#ff8f33" mask="url(#a)" transform="translate(0 139)"/><path d="M248.244 8C279.738 14.176 290 51.578 290 51.578L249.956 77c-12.316-36.315-1.712-69-1.712-69" fill="#ff8f33"/><path d="M225.617 16h-9.235C176.411 16 144 48.312 144 88.163V168h36.112V93.229H298v-5.066C298 48.312 265.587 16 225.617 16" fill="#425059"/><path d="M137 32.977S167.498 21.964 167.548 22C184.423 27.64 190 60.757 190 60.757L150.47 86C138.31 49.94 137 32.977 137 32.977" fill="#ff8f33"/><path d="M157.593 33.051C179.452 25.982 184 56.871 184 56.871l-9.526 13.985L152.161 85c-9.803-30.27-16.426-44.88 5.432-51.949" fill="#ffb985"/><path d="M156.565 79c-7.638-20.478-.627-49-.627-49C170.371 35.32 178 52.253 178 52.253l-5.89 16.585z" fill="#c44e12"/><path d="M169.337 67.025c-1.167 1.434-2.37 2.178-3.436 1.927-1.694-.402-2.622-3.178-2.641-7.034-6.255-2.172-10.26-7.48-10.26-7.48s2.498-1.25 6.044-1.888c-1.812-6.005-1.1-11.55-1.1-11.55s5.2 1.802 9.695 6.108c2.129-2.954 4.332-4.682 4.332-4.682s2.91 6 2.06 12.672c.123.062.24.125.358.187-.698 4.178-1.514 6.593-1.514 6.593L176 65.272c-.05 1.057-.292 1.911-.737 2.505l-2.606.852c-.983-.188-2.112-.734-3.32-1.604" fill="#ff8f33"/><path d="M207 38c-32.032 0-58 25.967-58 58h116c0-32.033-25.968-58-58-58" fill="#425059"/><path d="M326 101H167L278.88 0S324.005 22.221 326 101" fill="#8192a4"/><path d="M297.036 93h.184c3.844-.096 6.87-3.32 6.778-7.185-1.115-44.27-26.872-57.543-27.969-58.088-3.437-1.722-7.61-.278-9.31 3.203-1.693 3.459-.292 7.628 3.113 9.359.937.5 19.369 10.73 20.254 45.89.095 3.806 3.195 6.821 6.95 6.821M263.942 93h.184c3.897-.105 6.966-3.324 6.872-7.214-.78-30.362-19.051-39.68-19.827-40.05-3.502-1.737-7.724-.291-9.45 3.2a7.035 7.035 0 0 0 3.119 9.367c.667.361 11.522 6.637 12.054 27.848.094 3.816 3.238 6.849 7.048 6.849" fill="#425059"/><path d="M43 166.495V186h53v-39z" fill="#62717f"/><path d="M68.494 183C62.698 183 58 178.292 58 172.486 58 166.703 62.698 162 68.494 162 74.301 162 79 166.703 79 172.486 79 178.292 74.3 183 68.494 183" fill="#425059"/><path d="M45.818 182.262c0-.858-.561-1.612-1.369-2.242C46.547 179.1 48 177.682 48 176c0-1.683-1.453-3.1-3.55-4.02.807-.63 1.368-1.384 1.368-2.244 0-2.064-2.774-3.736-6.197-3.736-1.069 0-1.938 1.672-1.938 3.736 0 .86.177 1.614.43 2.244-.657.92-1.113 2.337-1.113 4.02 0 1.682.456 3.1 1.113 4.019a6.009 6.009 0 0 0-.43 2.243c0 2.064.869 3.738 1.938 3.738 3.423 0 6.197-1.674 6.197-3.738" fill="#ea7e2d"/><path d="M56 186H44v-19.57L56 162z" fill="#8192a4"/><path d="M249.166 233 245 224.059 278.818 208l4.182 8.935z" fill="#9f582c"/><path d="M299.562 210 295 200.446 345.444 177l4.556 9.555z" fill="#425059"/><path d="m286 194.757 9.417 9.243 47.071-22.107 3.485.548L377 167.866 351.461 164z" fill="#bcc4cd"/><path d="M297 207.815 298.15 221l65.557-30.832L377 168l-31.068 14.612-1.794 3.038z" fill="#8192a4"/><path d="M280 213.447 298.735 226 301 203.55 282.269 191zM252.832 237.43c2.604-1.227 3.85-4.013 2.791-6.263l-5.053-10.738c-1.055-2.247-4.01-3.092-6.612-1.867-2.338 1.102-3.588 3.502-3.028 5.607-1.626.958-2.374 2.806-1.658 4.326l2.927 6.202c.724 1.522 2.6 2.128 4.39 1.506 1.266 1.773 3.9 2.336 6.243 1.227" fill="#8192a4"/><path d="M295.408 218.902c5.742-2.699 8.195-9.563 5.495-15.3-2.707-5.743-9.555-8.206-15.3-5.508-5.747 2.713-8.212 9.565-5.502 15.31 2.707 5.745 9.551 8.2 15.307 5.498" fill="#425059"/><path d="M293.56 213.425c2.995-1.412 4.274-4.993 2.87-7.982a6 6 0 0 0-7.978-2.871 5.994 5.994 0 0 0-2.879 7.985c1.41 3.002 4.984 4.28 7.987 2.868" fill="#eb4900"/><path d="M167.224 22c23.223 14.136-20.7 52-20.7 52s-24.232-7.825-10.096-40.893z" fill="#ea7e2d"/><path d="M211.4 116h.067l2.49 2.43-5.49 5.548c.058.065.093.108.131.146l5.218 5.15c.052.05.122.084.184.126v.067l-2.428 2.49c-1.892-1.87-3.72-3.68-5.425-5.368L200.533 132h-.066c-.609-.626-1.215-1.254-1.827-1.877-.183-.186-.38-.358-.582-.545 1.855-1.882 3.66-3.713 5.473-5.55-.035-.045-.057-.084-.087-.114l-5.444-5.38v-.068c.61-.592 1.222-1.182 1.829-1.778.202-.198.392-.41.597-.627l5.546 5.47c.06-.05.112-.09.159-.136a5239.27 5239.27 0 0 0 5.143-5.212c.051-.051.085-.122.126-.183" fill="#000"/><path d="M270.99 183.239c.233 5.392-3.948 9.951-9.332 10.189l-12.909.563c-5.385.232-9.945-3.95-10.172-9.343l-.568-12.887c-.23-5.4 3.951-9.96 9.336-10.191l12.912-.561c5.381-.229 9.942 3.953 10.177 9.347z" fill="#ff8f33"/><path d="M231 189.277 230.183 166l-53.183.714.81 23.286z" fill="#425059"/><path d="M244 193.482 242.903 161l-14.903.523L229.093 194zM184.924 143C159.544 143 139 163.601 139 189h51z" fill="#8192a4"/><path d="M166 175.503c0 8.571 6.937 15.497 15.495 15.497 8.556 0 15.511-6.926 15.505-15.497 0-8.559-6.949-15.503-15.505-15.503-8.558 0-15.495 6.944-15.495 15.503" fill="#bcc4cd"/><path d="M172 176.001c.008 5.533 4.48 9.999 10.005 9.999a9.984 9.984 0 0 0 9.995-9.999c0-5.523-4.465-10.001-9.998-10.001-5.515 0-9.994 4.478-10.002 10.001" fill="#8192a4"/><path d="m112.905 122-20.437 6.573s-6.246 49.662 1.135 57.697c-.568-.73 17.598.73 17.598.73 21.006-27.023 1.704-65 1.704-65" fill="#62717f"/><path d="m102 126-36.178 1.702s-8.479-2.269 3.957 31.198c13.001 37.439 31.656 26.661 31.656 26.661z" fill="#8192a4"/><path d="M0 160.98c5.872.855 19.149 5.254 19.149 5.01-2.937-4.643-6-5.01-6-5.01s4.596-2.933 10.851-2.933c-6.766-4.277-11.49-1.955-11.49-1.955s2.937-4.888 8.936-6.843c-2.935-1.222-14.552 1.955-21.446 11.73" fill="#c44e12"/><g><path d="M0 28.878S7.628 0 53.398 0c45.769 0 54.487 28.878 54.487 28.878H57.03l-5.085-6.175 3.632-10.898-10.534 11.624 1.09 5.449z" fill="#bcc4cd" mask="url(#b)" transform="translate(370 199)"/><path d="M96.97 13.706C88.964 6.74 75.514 0 53.398 0 31.281 0 18.086 6.74 10.342 13.706h43.464l1.703-1.924-.477 1.924z" fill="#8192a4" mask="url(#b)" transform="translate(370 199)"/><path d="M77.776 3.354C71.137 1.304 63.11 0 53.398 0 43.681 0 35.694 1.303 29.13 3.354z" fill="#425059" mask="url(#b)" transform="translate(370 199)"/></g></g></svg>