<svg width="88" height="81" xmlns="http://www.w3.org/2000/svg" xmlns:xlink="http://www.w3.org/1999/xlink"><defs><linearGradient x1="16.139%" y1="40.903%" x2="115.035%" y2="62.461%" id="c"><stop stop-color="red" offset="0%"/><stop stop-color="#960000" offset="100%"/></linearGradient><filter x="-16.7%" y="-15.4%" width="133.3%" height="136.9%" filterUnits="objectBoundingBox" id="a"><feMorphology radius="3" operator="dilate" in="SourceAlpha" result="shadowSpreadOuter1"/><feOffset dy="2" in="shadowSpreadOuter1" result="shadowOffsetOuter1"/><feGaussianBlur stdDeviation="2" in="shadowOffsetOuter1" result="shadowBlurOuter1"/><feComposite in="shadowBlurOuter1" in2="SourceAlpha" operator="out" result="shadowBlurOuter1"/><feColorMatrix values="0 0 0 0 0 0 0 0 0 0 0 0 0 0 0 0 0 0 0.5 0" in="shadowBlurOuter1"/></filter><path d="M36.016 10.309c1.667-2.366 3.34-4.493 5.557-6.116C47.928-.459 54.8-1.367 61.865 2.11c6.938 3.415 9.956 9.383 10.127 17.007.238 10.602-4.681 18.596-12.354 25.39-7.45 6.597-15.169 12.893-22.34 19.797-.915.88-1.552.96-2.506.041-7.214-6.944-15.05-13.2-22.45-19.939-5.183-4.722-9.76-9.885-11.337-16.982C.01 22.954-.49 18.426.667 13.92 4.255-.07 21.49-4.574 32.195 5.639c1.416 1.35 2.573 2.912 3.821 4.67Z" id="b"/></defs><g fill="none" fill-rule="evenodd"><g transform="translate(8 6)"><use fill="#000" filter="url(#a)" xlink:href="#b"/><use stroke="#FFF" stroke-width="4" fill="url(#c)" xlink:href="#b"/></g><path fill="#FFF" d="m40 11.808-1 17.028 8.457 7.664L40 49l14.646-13.5-9.132-8.412 3.899-15.28L44 16.084z"/></g></svg>