<svg height="22" width="22" xmlns="http://www.w3.org/2000/svg"><path d="M3.813 0h.098c.214.2.434.395.642.602 1.984 1.979 3.966 3.96 5.95 5.94.498.498.5.498.983.015 2.028-2.027 4.057-4.055 6.083-6.084.15-.15.282-.315.422-.473h.196L22 3.813v.098l-6.609 6.59c-.464.462-.465.465-.013.917 2.003 2.005 4.007 4.009 6.012 6.011.196.195.406.375.61.562v.196L18.187 22h-.098c-2.239-2.272-4.48-4.54-6.782-6.749-.227-.218-.388-.214-.612.001-2.3 2.21-4.542 4.48-6.784 6.748h-.098L0 18.187v-.196c.803-.785 1.611-1.566 2.407-2.358 1.433-1.424 2.858-2.856 4.288-4.283.207-.207.395-.383.093-.682C4.52 8.421 2.262 6.165 0 3.911v-.098L3.813 0" fill="#fff" fill-rule="evenodd"/></svg>